# xmcd
#
# Track frame offsets:
#	150
#	14565
#	28987
#	52206
#	67775
#	85108
#	101645
#	118517
#	132927
#	153706
#	168505
#	183796
#	203718
#	219986
#	236162
#	254002
#
# Disc length: 3582 seconds
#
# Revision: 1
# Processed by: cddbd v1.5.2PL0 Copyright (c) Steve Scherf et al.
# Submitted via: audiograbber 1.83.01
#
DISCID=e50dfc10
DTITLE=Various Artist - Die besten Country-Pop Songs
DYEAR=2008
DGENRE=Country
TTITLE0=Chely Wright - C'est la Vie (You Never Can Tell)
TTITLE1=Alan Jackson - Summertime Blues
TTITLE2=LeAnn Rimes - How Do I Live
TTITLE3=Trick Pony - It's A Heartache
TTITLE4=The Bosshoss - Hey Ya!
TTITLE5=Don Williams - Fever
TTITLE6=The Wilkinsons - Fast Car
TTITLE7=The Mavericks - Here Comes My Baby
TTITLE8=Dolly Parton - Just When I Needed You Most
TTITLE9=Mark Wills - I Do (Cherish You)
TTITLE10=Texas Lightning - Like A Virgin
TTITLE11=John Michael Montgomery - I Swear
TTITLE12=LeAnn Rimes - You Light Up My Life
TTITLE13=Lorrie Morgan - Watch Me
TTITLE14=Shooter Jennings - Walk Of Life (Dire Straits)
TTITLE15=Sherrie Austin - Jolene
EXTD=
EXTT0=
EXTT1=
EXTT2=
EXTT3=
EXTT4=
EXTT5=
EXTT6=
EXTT7=
EXTT8=
EXTT9=
EXTT10=
EXTT11=
EXTT12=
EXTT13=
EXTT14=
EXTT15=
PLAYORDER=
